<?xml version="1.0" standalone="no"?>
<!DOCTYPE svg PUBLIC "-//W3C//DTD SVG 20010904//EN"
 "http://www.w3.org/TR/2001/REC-SVG-20010904/DTD/svg10.dtd">
<svg version="1.0" xmlns="http://www.w3.org/2000/svg"
 width="512.000000pt" height="512.000000pt" viewBox="0 0 512.000000 512.000000"
 preserveAspectRatio="xMidYMid meet">
<metadata>
Created by potrace 1.11, written by Peter Selinger 2001-2013
</metadata>
<g transform="translate(0.000000,512.000000) scale(0.100000,-0.100000)"
fill="#000000" stroke="none">
<path d="M504 5109 c-228 -38 -406 -195 -476 -419 l-23 -75 0 -2055 c0 -1666
2 -2064 13 -2105 27 -101 80 -194 155 -270 81 -81 134 -115 240 -154 l72 -26
2042 -3 c1785 -2 2052 0 2115 13 227 47 415 234 463 460 22 104 22 4065 0
4168 -23 111 -77 209 -158 291 -78 78 -145 121 -247 158 l-65 23 -2040 1
c-1122 1 -2063 -2 -2091 -7z m2178 -426 c17 -15 18 -51 18 -724 l0 -709 -35
-14 c-47 -20 -75 -69 -73 -126 1 -44 1 -44 5 -7 6 50 72 121 128 136 148 38
756 56 948 26 366 -56 601 -195 740 -437 38 -66 84 -209 98 -307 24 -166 -5
-388 -71 -542 -144 -339 -502 -545 -1004 -578 -125 -8 -361 0 -418 14 l-28 7
-2 -493 -3 -494 -195 0 -195 0 -3 509 -2 509 -49 -6 c-26 -3 -82 -3 -124 0
l-76 6 -4 526 c-2 289 -7 536 -11 549 l-8 22 -476 -2 -476 -3 -138 -255 c-77
-140 -146 -271 -155 -290 -28 -64 -276 -525 -291 -542 -13 -15 -33 -18 -131
-18 -150 0 -251 10 -251 24 0 6 37 79 81 161 45 83 113 211 151 285 39 74 120
230 182 345 61 116 127 239 145 275 19 36 76 142 127 237 52 95 94 175 94 178
0 4 33 68 74 143 123 229 159 296 174 327 9 17 65 122 125 235 61 113 138 259
172 325 34 66 92 176 130 245 37 69 94 177 127 240 66 131 117 187 201 219 46
18 77 20 266 20 186 1 217 -1 233 -16z"/>
<path d="M2308 4319 c-10 -19 -37 -70 -61 -114 -24 -44 -76 -141 -116 -215
-41 -74 -88 -160 -106 -190 -29 -48 -241 -442 -283 -525 -9 -16 -30 -52 -47
-80 -55 -88 -147 -267 -140 -273 4 -4 178 -8 388 -10 354 -3 382 -2 394 14 17
24 17 1133 0 1308 l-12 119 -17 -34z"/>
<path d="M3124 2970 c-39 -4 -85 -11 -102 -15 l-32 -7 0 -602 0 -602 48 -13
c73 -19 304 -31 422 -20 135 11 198 25 288 60 199 79 317 216 358 415 23 108
15 293 -16 384 -42 126 -124 230 -230 295 -72 44 -213 91 -313 104 -87 12
-313 12 -423 1z"/>
</g>
</svg>
