<svg xmlns="http://www.w3.org/2000/svg" width="41" height="30" fill="#fff"><path d="M35.4 30H5.6C2.5 30 0 27.5 0 24.4V5.6C0 2.5 2.5 0 5.6 0h29.8C38.5 0 41 2.5 41 5.6v18.8c0 3.1-2.5 5.6-5.6 5.6zM5.6 3.8c-1 0-1.9.8-1.9 1.9v18.8c0 1 .8 1.9 1.9 1.9h29.8c1 0 1.9-.8 1.9-1.9V5.6c0-1-.8-1.9-1.9-1.9H5.6z"/><path d="M16.8 20.6H9.3c-1 0-1.9-.8-1.9-1.9s.8-1.9 1.9-1.9h7.5c1 0 1.9.8 1.9 1.9s-.9 1.9-1.9 1.9zm0-7.5H9.3c-1 0-1.9-.8-1.9-1.9s.8-1.9 1.9-1.9h7.5c1 0 1.9.8 1.9 1.9s-.9 1.9-1.9 1.9z"/><ellipse cx="28" cy="12.2" rx="3.7" ry="3.8"/><path d="M28 17.5c-2.9 0-4.7 1.3-4.7 2.7 0 .7 1.7 1.3 4.7 1.3 2.7 0 4.7-.7 4.7-1.3-.1-1.3-1.9-2.7-4.7-2.7z"/></svg>