<svg xmlns="http://www.w3.org/2000/svg" width="32" height="18"><path d="M31.8 16.3c0-.1-.1-.2-.1-.2-.6-1-1.6-2.2-3.2-3.6-.7-.7-1.2-1.1-1.3-1.3-.3-.4-.4-.9-.2-1.3.1-.3.6-1.1 1.5-2.2.5-.6.8-1 1.1-1.4 1.8-2.7 2.6-4.3 2.4-5l-.1-.2c-.1-.1-.2-.2-.5-.3-.3-.1-.6-.1-1.1 0h-5.5c-.1 0-.1.1-.2.2s-.1.2-.2.3c-.5 1.3-1.1 2.6-1.8 3.7-.4.7-.8 1.3-1.1 1.8-.3.5-.6.9-.9 1.1l-.6.6c-.2.1-.3.2-.4.2-.1 0-.2 0-.3-.1-.2-.1-.3-.2-.4-.4-.1-.2-.2-.4-.2-.6 0-.3-.1-.5-.1-.7v-5c0-.3 0-.6-.1-.7 0-.2-.1-.4-.2-.5-.1-.2-.2-.3-.3-.4-.1-.1-.3-.2-.6-.2s-1.1-.1-2-.1c-2.1 0-3.4.1-4 .4-.2.1-.4.3-.6.5-.2.2-.2.4-.1.4.7.1 1.1.3 1.4.7l.1.2c.1.1.2.4.2.8.1.4.1.8.1 1.2.1.8.1 1.5 0 2.1-.1.6-.1 1-.2 1.3-.1.3-.1.6-.2.8 0 .1-.1.2-.1.3l-.1.1c-.1.1-.3.1-.4.1-.2 0-.3-.1-.6-.2-.2-.2-.5-.4-.7-.6-.2-.4-.5-.8-.8-1.3-.3-.4-.6-1-.9-1.7l-.3-.4-.7-1.4c-.3-.6-.5-1.1-.7-1.7-.1-.2-.3-.4-.4-.5L6.3 1C6.2 1 6.1.9 6 .9c-.1 0-.2-.1-.4-.1H1C.5.8.2.9.1 1.1v.1c-.1.1-.1.2-.1.3 0 .1 0 .3.1.4.7 1.5 1.4 3 2.2 4.5s1.5 2.6 2 3.5c.6.9 1.2 1.7 1.8 2.5.6.8 1 1.3 1.2 1.5.2.2.3.4.5.5l.4.4c.3.3.7.6 1.2.9.5.4 1.1.7 1.7 1.1.6.4 1.4.6 2.2.9.8.2 1.6.3 2.4.3h1.9c.4 0 .7-.2.9-.4l.1-.1c0-.1.1-.2.1-.3 0-.1.1-.3.1-.5 0-.5 0-.9.1-1.3s.2-.7.3-.9c.1-.2.2-.4.4-.5.1-.1.2-.2.3-.2.1 0 .1 0 .1-.1.3-.1.6 0 .9.3.4.3.7.6 1 1 .3.4.7.8 1.1 1.3.4.5.8.8 1.2 1.1l.3.2c.2.1.5.3.9.4h.9l4.3-.1c.4 0 .8-.1 1-.2.2-.1.4-.3.4-.5v-.6c-.1-.1-.1-.3-.2-.3z" fill="#fff"/></svg>